<?xml version="1.0" encoding="iso-8859-1"?>
<!-- Generator: Adobe Illustrator 17.1.0, SVG Export Plug-In . SVG Version: 6.00 Build 0)  -->
<!DOCTYPE svg PUBLIC "-//W3C//DTD SVG 1.1//EN" "http://www.w3.org/Graphics/SVG/1.1/DTD/svg11.dtd">
<svg xmlns="http://www.w3.org/2000/svg" xmlns:xlink="http://www.w3.org/1999/xlink" version="1.1" id="Capa_1" x="0px" y="0px" viewBox="0 0 207.806 207.806" style="enable-background:new 0 0 207.806 207.806;" xml:space="preserve" width="512px" height="512px">
<path d="M186.653,176.188l-57.18-92.36V13.674h5.035c3.579,0,6.481-2.902,6.481-6.481V6.481c0-3.58-2.902-6.481-6.481-6.481h-61.21  c-3.579,0-6.481,2.902-6.481,6.481v0.712c0,3.579,2.902,6.481,6.481,6.481h5.035v70.154l-57.18,92.36  c-3.911,6.316-4.095,13.95-0.491,20.418c3.848,6.908,11.355,11.199,19.592,11.199h127.299c8.236,0,15.744-4.291,19.592-11.199  C190.748,190.138,190.564,182.505,186.653,176.188z M88.333,86.673V18.674h31.141v67.999l20.328,32.835H68.004L88.333,86.673z" fill="#FFFFFF"/>
<g>
</g>
<g>
</g>
<g>
</g>
<g>
</g>
<g>
</g>
<g>
</g>
<g>
</g>
<g>
</g>
<g>
</g>
<g>
</g>
<g>
</g>
<g>
</g>
<g>
</g>
<g>
</g>
<g>
</g>
</svg>
